<mxfile host="app.diagrams.net" modified="2023-12-23T12:49:04.792Z" agent="Mozilla/5.0 (Windows NT 10.0; Win64; x64) AppleWebKit/537.36 (KHTML, like Gecko) Chrome/120.0.0.0 Safari/537.36" etag="47PTwxUhcMlBiztaahyi" version="22.1.11" type="google">
  <diagram name="Sayfa -1" id="A4B-G4L5MD3Yk1idEYMb">
    <mxGraphModel dx="1674" dy="772" grid="1" gridSize="10" guides="1" tooltips="1" connect="1" arrows="1" fold="1" page="1" pageScale="1" pageWidth="827" pageHeight="1169" math="0" shadow="0">
      <root>
        <mxCell id="0" />
        <mxCell id="1" parent="0" />
        <mxCell id="n2QFOZv2fY4_Q-dJ_-95-1" value="" style="fontColor=#0066CC;verticalAlign=top;verticalLabelPosition=bottom;labelPosition=center;align=center;html=1;outlineConnect=0;fillColor=#CCCCCC;strokeColor=#6881B3;gradientColor=none;gradientDirection=north;strokeWidth=2;shape=mxgraph.networks.virtual_pc;" vertex="1" parent="1">
          <mxGeometry x="70" y="250" width="115" height="85" as="geometry" />
        </mxCell>
        <mxCell id="n2QFOZv2fY4_Q-dJ_-95-2" value="" style="whiteSpace=wrap;html=1;aspect=fixed;" vertex="1" parent="1">
          <mxGeometry x="200" y="140" width="350" height="350" as="geometry" />
        </mxCell>
        <mxCell id="n2QFOZv2fY4_Q-dJ_-95-3" value="" style="shape=datastore;whiteSpace=wrap;html=1;" vertex="1" parent="1">
          <mxGeometry x="620" y="262.5" width="60" height="60" as="geometry" />
        </mxCell>
        <mxCell id="n2QFOZv2fY4_Q-dJ_-95-4" value="CLIENT" style="text;html=1;align=center;verticalAlign=middle;resizable=0;points=[];autosize=1;strokeColor=none;fillColor=none;" vertex="1" parent="1">
          <mxGeometry x="92.5" y="350" width="70" height="30" as="geometry" />
        </mxCell>
        <mxCell id="n2QFOZv2fY4_Q-dJ_-95-5" value="DATABASE" style="text;html=1;align=center;verticalAlign=middle;resizable=0;points=[];autosize=1;strokeColor=none;fillColor=none;" vertex="1" parent="1">
          <mxGeometry x="605" y="350" width="90" height="30" as="geometry" />
        </mxCell>
        <mxCell id="n2QFOZv2fY4_Q-dJ_-95-6" value="VIEW" style="rounded=1;whiteSpace=wrap;html=1;" vertex="1" parent="1">
          <mxGeometry x="390" y="370" width="120" height="60" as="geometry" />
        </mxCell>
        <mxCell id="n2QFOZv2fY4_Q-dJ_-95-7" value="MODEL" style="rounded=1;whiteSpace=wrap;html=1;" vertex="1" parent="1">
          <mxGeometry x="390" y="215" width="120" height="60" as="geometry" />
        </mxCell>
        <mxCell id="n2QFOZv2fY4_Q-dJ_-95-8" value="CONTROLLER" style="rounded=1;whiteSpace=wrap;html=1;rotation=-90;" vertex="1" parent="1">
          <mxGeometry x="230" y="275" width="120" height="60" as="geometry" />
        </mxCell>
        <mxCell id="n2QFOZv2fY4_Q-dJ_-95-9" value="" style="endArrow=classic;html=1;rounded=0;exitX=0.942;exitY=1.033;exitDx=0;exitDy=0;entryX=0;entryY=0.25;entryDx=0;entryDy=0;exitPerimeter=0;" edge="1" parent="1" source="n2QFOZv2fY4_Q-dJ_-95-8" target="n2QFOZv2fY4_Q-dJ_-95-7">
          <mxGeometry width="50" height="50" relative="1" as="geometry">
            <mxPoint x="390" y="420" as="sourcePoint" />
            <mxPoint x="440" y="370" as="targetPoint" />
          </mxGeometry>
        </mxCell>
        <mxCell id="n2QFOZv2fY4_Q-dJ_-95-10" value="" style="endArrow=classic;html=1;rounded=0;exitX=0;exitY=0.75;exitDx=0;exitDy=0;" edge="1" parent="1" source="n2QFOZv2fY4_Q-dJ_-95-7" target="n2QFOZv2fY4_Q-dJ_-95-8">
          <mxGeometry width="50" height="50" relative="1" as="geometry">
            <mxPoint x="390" y="420" as="sourcePoint" />
            <mxPoint x="440" y="370" as="targetPoint" />
          </mxGeometry>
        </mxCell>
        <mxCell id="n2QFOZv2fY4_Q-dJ_-95-11" value="" style="endArrow=classic;html=1;rounded=0;exitX=0.192;exitY=1.033;exitDx=0;exitDy=0;exitPerimeter=0;entryX=0;entryY=0.25;entryDx=0;entryDy=0;" edge="1" parent="1" source="n2QFOZv2fY4_Q-dJ_-95-8" target="n2QFOZv2fY4_Q-dJ_-95-6">
          <mxGeometry width="50" height="50" relative="1" as="geometry">
            <mxPoint x="390" y="420" as="sourcePoint" />
            <mxPoint x="440" y="370" as="targetPoint" />
          </mxGeometry>
        </mxCell>
        <mxCell id="n2QFOZv2fY4_Q-dJ_-95-12" value="" style="endArrow=classic;html=1;rounded=0;exitX=1;exitY=0.25;exitDx=0;exitDy=0;entryX=-0.083;entryY=0.208;entryDx=0;entryDy=0;entryPerimeter=0;" edge="1" parent="1" source="n2QFOZv2fY4_Q-dJ_-95-7" target="n2QFOZv2fY4_Q-dJ_-95-3">
          <mxGeometry width="50" height="50" relative="1" as="geometry">
            <mxPoint x="390" y="420" as="sourcePoint" />
            <mxPoint x="440" y="370" as="targetPoint" />
          </mxGeometry>
        </mxCell>
        <mxCell id="n2QFOZv2fY4_Q-dJ_-95-13" value="" style="endArrow=classic;html=1;rounded=0;exitX=-0.05;exitY=0.842;exitDx=0;exitDy=0;exitPerimeter=0;entryX=1;entryY=0.75;entryDx=0;entryDy=0;" edge="1" parent="1" source="n2QFOZv2fY4_Q-dJ_-95-3" target="n2QFOZv2fY4_Q-dJ_-95-7">
          <mxGeometry width="50" height="50" relative="1" as="geometry">
            <mxPoint x="390" y="420" as="sourcePoint" />
            <mxPoint x="440" y="370" as="targetPoint" />
          </mxGeometry>
        </mxCell>
        <mxCell id="n2QFOZv2fY4_Q-dJ_-95-14" value="" style="endArrow=classic;html=1;rounded=0;" edge="1" parent="1">
          <mxGeometry width="50" height="50" relative="1" as="geometry">
            <mxPoint x="390" y="420" as="sourcePoint" />
            <mxPoint x="160" y="340" as="targetPoint" />
            <Array as="points">
              <mxPoint x="250" y="410" />
            </Array>
          </mxGeometry>
        </mxCell>
        <mxCell id="n2QFOZv2fY4_Q-dJ_-95-15" value="SERVER" style="text;html=1;align=center;verticalAlign=middle;resizable=0;points=[];autosize=1;strokeColor=none;fillColor=none;" vertex="1" parent="1">
          <mxGeometry x="335" y="488" width="70" height="30" as="geometry" />
        </mxCell>
      </root>
    </mxGraphModel>
  </diagram>
</mxfile>
